<svg xmlns="http://www.w3.org/2000/svg" viewBox="0 0 120 120" fill="none" shape-rendering="auto"><metadata xmlns:rdf="http://www.w3.org/1999/02/22-rdf-syntax-ns#" xmlns:xsi="http://www.w3.org/2001/XMLSchema-instance" xmlns:dc="http://purl.org/dc/elements/1.1/" xmlns:dcterms="http://purl.org/dc/terms/"><rdf:RDF><rdf:Description><dc:title>Bottts</dc:title><dc:creator>Pablo Stanley</dc:creator><dc:source xsi:type="dcterms:URI">https://bottts.com/</dc:source><dcterms:license xsi:type="dcterms:URI">https://bottts.com/</dcterms:license><dc:rights>Remix of „Bottts” (https://bottts.com/) by „Pablo Stanley”, licensed under „Free for personal and commercial use” (https://bottts.com/)</dc:rights></rdf:Description></rdf:RDF></metadata><mask id="viewboxMask"><rect width="120" height="120" rx="0" ry="0" x="0" y="0" fill="#fff" /></mask><g mask="url(#viewboxMask)"><rect fill="#d81b60" width="120" height="120" x="0" y="0" /><g transform="translate(22 68)"><path fill-rule="evenodd" clip-rule="evenodd" d="M18 10.22C18 21.78 24.47 28 38 28c13.52 0 20-6.34 20-17.78C58 9.5 57.17 8 55 8H21c-2.05 0-3 1.38-3 2.22Z" fill="#000" fill-opacity=".8"/><mask id="mouthSmile02-a" style="mask-type:luminance" maskUnits="userSpaceOnUse" x="18" y="8" width="40" height="20"><path fill-rule="evenodd" clip-rule="evenodd" d="M18 10.22C18 21.78 24.47 28 38 28c13.52 0 20-6.34 20-17.78C58 9.5 57.17 8 55 8H21c-2.05 0-3 1.38-3 2.22Z" fill="#fff"/></mask><g mask="url(#mouthSmile02-a)"><rect x="30" y="2" width="16" height="14" rx="2" fill="#fff"/></g></g><g transform="translate(8 20)"><path d="M28 44a20 20 0 0 0 19.9-18h41.52a5 5 0 1 0 0-4H47.9A20 20 0 1 0 28 44Z" fill="#000" fill-opacity=".2"/><circle cx="94" cy="24" r="2" fill="#fff"/><circle cx="28" cy="24" r="16" fill="#000" fill-opacity=".6"/><circle cx="34" cy="16" r="3" fill="#fff"/></g></g></svg>