<?xml version="1.0" encoding="iso-8859-1"?>
<!-- Uploaded to: SVG Repo, www.svgrepo.com, Generator: SVG Repo Mixer Tools -->
<svg fill="#000000" version="1.1" id="Capa_1" xmlns="http://www.w3.org/2000/svg" xmlns:xlink="http://www.w3.org/1999/xlink" 
	 viewBox="0 0 285 285" xml:space="preserve">
<g id="XMLID_516_">
	<rect id="XMLID_517_" y="7.5" width="60" height="270"/>
	<rect id="XMLID_518_" x="90" y="7.5" width="30" height="270"/>
	<path id="XMLID_519_" d="M225,157.428v-29.855c33.084,0,60-26.916,60-60c0-33.084-26.916-60-60-60
		c-31.424,0-57.18,23.901-59.779,54.892c-0.02,0.158-0.173,1.825-0.173,2.515c0,0.031,0.005,0.06,0.005,0.091
		c-0.001,0.024-0.004,0.047-0.005,0.071l0.009,0.001c0.088,10.97,9,19.837,19.991,19.837c11.046,0,20-8.954,20-20
		c0-5.252-2.041-10.017-5.353-13.586c5.326-8.344,14.666-13.821,25.305-13.821c16.542,0,30,13.458,30,30c0,16.542-13.458,30-30,30
		V82.5l-75,60l75,60v-15.072c16.542,0,30,13.458,30,29.999c0,16.542-13.458,30.001-30,30.001c-10.639,0-19.979-5.477-25.305-13.821
		c3.312-3.569,5.353-8.333,5.353-13.586c0-11.046-8.954-20-20-20c-10.991,0-19.903,8.868-19.991,19.837l-0.009,0.001
		c0.001,0.024,0.004,0.047,0.005,0.071c0,0.031-0.005,0.06-0.005,0.091c0,0.69,0.153,2.357,0.173,2.515
		c2.6,30.991,28.355,54.892,59.779,54.892c33.084,0,60-26.916,60-60.001C285,184.343,258.084,157.428,225,157.428z"/>
</g>
</svg>