<svg xmlns="http://www.w3.org/2000/svg" viewBox="0 0 120 120" fill="none" shape-rendering="auto"><metadata xmlns:rdf="http://www.w3.org/1999/02/22-rdf-syntax-ns#" xmlns:xsi="http://www.w3.org/2001/XMLSchema-instance" xmlns:dc="http://purl.org/dc/elements/1.1/" xmlns:dcterms="http://purl.org/dc/terms/"><rdf:RDF><rdf:Description><dc:title>Bottts</dc:title><dc:creator>Pablo Stanley</dc:creator><dc:source xsi:type="dcterms:URI">https://bottts.com/</dc:source><dcterms:license xsi:type="dcterms:URI">https://bottts.com/</dcterms:license><dc:rights>Remix of „Bottts” (https://bottts.com/) by „Pablo Stanley”, licensed under „Free for personal and commercial use” (https://bottts.com/)</dc:rights></rdf:Description></rdf:RDF></metadata><mask id="viewboxMask"><rect width="120" height="120" rx="0" ry="0" x="0" y="0" fill="#fff" /></mask><g mask="url(#viewboxMask)"><rect fill="#7cb342" width="120" height="120" x="0" y="0" /><g transform="translate(22 68)"><path fill-rule="evenodd" clip-rule="evenodd" d="M18 10.22C18 21.78 24.47 28 38 28c13.52 0 20-6.34 20-17.78C58 9.5 57.17 8 55 8H21c-2.05 0-3 1.38-3 2.22Z" fill="#000" fill-opacity=".8"/><mask id="mouthSmile02-a" style="mask-type:luminance" maskUnits="userSpaceOnUse" x="18" y="8" width="40" height="20"><path fill-rule="evenodd" clip-rule="evenodd" d="M18 10.22C18 21.78 24.47 28 38 28c13.52 0 20-6.34 20-17.78C58 9.5 57.17 8 55 8H21c-2.05 0-3 1.38-3 2.22Z" fill="#fff"/></mask><g mask="url(#mouthSmile02-a)"><rect x="30" y="2" width="16" height="14" rx="2" fill="#fff"/></g></g><g transform="translate(8 20)"><g fill-rule="evenodd" clip-rule="evenodd"><path d="M53 0c34.75 0 49 17.47 49 31 0 13.53-19.59 17-49 17-29.05 0-51-3.47-51-17S17.11 0 53 0Z" fill="#000" fill-opacity=".8"/><path d="M28.82 34.65c-6.53-1.35-11.24-6.34-10.52-11.14.72-4.79 6.6-7.58 13.12-6.23 6.53 1.36 11.24 6.35 10.52 11.15-.72 4.8-6.6 7.59-13.12 6.23ZM75.42 34.65c-6.52 1.36-12.4-1.43-13.12-6.23-.72-4.8 4-9.8 10.52-11.15 6.52-1.35 12.4 1.44 13.12 6.24.72 4.81-4 9.8-10.52 11.15Z" fill="#25A6F5"/></g></g></g></svg>